 <svg version="1.0" xmlns="http://www.w3.org/2000/svg" width="700.000000pt" height="215.000000pt" viewBox="0 0 700.000000 215.000000" preserveAspectRatio="xMidYMid meet">
<metadata>
Created by potrace 1.12, written by Peter Selinger 2001-2015
</metadata>
<g transform="translate(0.000000,215.000000) scale(0.100000,-0.100000)" fill="#000000" stroke="none">
<path d="M3495 2118 c-2 -7 -5 -22 -7 -33 -2 -13 -14 -21 -38 -26 -28 -6 -269
-25 -405 -32 -28 -2 -30 1 -33 36 l-3 37 -103 0 c-111 0 -134 -9 -123 -50 8
-30 -12 -39 -129 -55 -60 -8 -160 -24 -223 -35 -119 -22 -141 -21 -141 5 0 12
-17 15 -99 15 -55 0 -103 -4 -106 -10 -3 -5 -7 -25 -9 -45 -1 -19 -5 -37 -9
-41 -6 -7 -112 -39 -272 -84 -110 -30 -323 -115 -483 -191 -56 -27 -105 -49
-107 -49 -10 0 -300 -144 -355 -175 -30 -18 -111 -51 -180 -73 -379 -125 -569
-182 -603 -182 l-38 0 3 -87 3 -88 80 -6 c44 -4 93 -12 108 -18 29 -11 153
-47 282 -82 154 -41 266 -84 429 -164 94 -46 205 -98 246 -115 41 -18 159 -67
262 -111 103 -43 193 -79 201 -79 7 0 17 -4 23 -9 5 -5 61 -23 124 -40 64 -17
134 -37 157 -45 23 -8 62 -18 87 -21 54 -9 66 -24 66 -89 l0 -46 103 0 c107 0
127 7 127 43 0 22 -12 22 190 -8 58 -8 145 -19 193 -25 49 -5 91 -11 95 -14 3
-3 8 -23 11 -43 l6 -38 70 -3 c111 -4 132 2 140 44 l6 36 87 -6 c48 -3 153 -8
235 -12 l147 -6 0 -44 0 -45 108 3 107 3 2 35 c1 19 2 40 2 45 1 12 206 36
364 42 84 4 107 2 109 -9 0 -7 2 -17 2 -23 4 -30 20 -35 106 -35 109 0 118 3
112 39 -6 41 13 71 46 71 78 1 390 72 612 139 36 11 110 33 165 50 109 32 124
37 313 122 26 12 101 45 167 74 173 76 307 141 410 200 50 28 110 59 135 69
62 25 253 86 266 86 6 0 33 9 60 19 114 46 280 91 331 91 l53 0 0 49 c0 26 -3
69 -6 95 l-7 46 -74 0 c-68 0 -157 18 -265 54 -23 8 -95 29 -158 46 -137 37
-305 96 -340 120 -14 9 -50 28 -80 42 -149 71 -252 118 -256 118 -2 0 -23 9
-47 19 -101 46 -358 151 -417 171 -199 67 -628 169 -795 190 -122 15 -135 21
-135 64 0 42 -4 43 -119 36 -80 -5 -86 -7 -89 -27 -5 -34 -38 -38 -222 -24
-289 21 -269 16 -276 62 l-7 39 -94 0 c-66 0 -95 -4 -98 -12z m173 -30 l3 -28
-80 0 c-79 0 -81 1 -81 24 0 30 9 34 90 32 63 -1 65 -2 68 -28z m-690 -29 c3
-25 1 -26 -59 -33 -108 -11 -109 -11 -109 29 l0 36 83 -3 c80 -3 82 -4 85 -29z
m1402 -14 c0 -28 -3 -29 -99 -19 -50 6 -61 10 -61 25 0 17 9 19 80 19 79 0 80
0 80 -25z m-440 -29 c52 -4 124 -9 160 -12 36 -3 87 -5 115 -5 63 1 331 -36
355 -49 25 -13 39 -12 20 1 -13 9 -13 10 0 6 17 -6 133 -32 235 -53 108 -22
306 -75 342 -90 17 -8 35 -13 40 -12 12 3 152 -40 198 -62 100 -47 155 -71
215 -94 36 -13 92 -36 125 -51 33 -15 74 -33 90 -40 17 -7 78 -36 138 -64 59
-28 110 -51 112 -51 3 0 24 -12 48 -27 23 -14 43 -26 45 -25 3 3 130 -68 237
-133 l50 -30 -115 -5 c-112 -5 -116 -4 -163 23 -26 15 -50 27 -53 27 -2 0 -40
23 -84 50 -44 28 -83 50 -86 50 -3 0 -18 8 -32 18 -15 11 -54 29 -87 42 -33
13 -93 38 -132 57 -40 18 -77 33 -83 33 -6 0 -18 4 -28 10 -107 59 -664 240
-800 260 -42 6 -124 22 -182 35 -277 63 -762 100 -1191 92 -273 -6 -318 -8
-479 -27 -47 -5 -119 -12 -160 -16 -138 -11 -296 -37 -500 -83 -47 -11 -112
-25 -145 -32 -147 -29 -752 -251 -884 -325 -24 -13 -50 -24 -58 -24 -20 0
-124 -55 -218 -115 -44 -28 -113 -70 -154 -93 -73 -42 -74 -42 -177 -42 -56 0
-105 4 -108 9 -5 7 261 171 314 194 8 4 22 11 30 16 50 30 474 231 488 231 4
0 34 13 67 29 157 75 192 90 318 131 53 18 106 30 117 27 11 -3 18 -2 15 3 -5
9 -14 6 165 55 155 42 231 58 385 85 61 10 130 23 155 28 69 16 123 21 400 38
58 3 141 9 185 13 94 8 618 6 755 -3z m-1676 -55 c4 -6 -1 -14 -11 -19 -15 -8
-136 -42 -149 -42 -2 0 -4 13 -4 29 0 34 5 35 97 39 34 2 64 -2 67 -7z m1322
-111 c9 0 12 5 8 12 -5 8 0 9 17 5 13 -4 27 -7 32 -7 4 0 7 -4 7 -10 0 -5 -20
-10 -45 -10 -36 0 -45 3 -44 18 0 10 3 12 6 5 2 -7 11 -13 19 -13z m-696 -30
c-11 -8 -8 -10 15 -8 17 2 33 7 37 13 4 5 10 6 15 2 11 -12 -18 -27 -54 -27
-33 0 -52 15 -31 23 23 9 33 7 18 -3z m-40 -10 c0 -5 -4 -10 -10 -10 -5 0 -10
5 -10 10 0 6 5 10 10 10 6 0 10 -4 10 -10z m1440 -6 c0 -2 -15 -4 -32 -3 -27
0 -29 2 -13 8 18 8 45 4 45 -5z m-832 -9 c-4 -4 -170 -8 -188 -5 -23 5 131 16
163 11 15 -2 27 -5 25 -6z m213 8 c0 -5 2 -134 5 -288 2 -154 7 -424 10 -600
4 -176 7 -374 8 -440 l1 -120 -88 -3 -89 -3 4 428 c2 235 -1 532 -6 658 -5
127 -6 260 -2 297 6 58 10 67 29 71 39 8 127 7 128 0z m-313 -37 l117 -1 3
-70 c3 -58 0 -72 -15 -83 -17 -13 -17 -14 0 -23 16 -9 18 -23 16 -97 -1 -48 2
-130 6 -182 4 -52 7 -162 6 -245 -1 -166 -8 -486 -10 -498 0 -4 -99 -6 -218
-5 l-218 3 -1 85 c-1 47 -5 120 -9 163 -6 63 -5 77 6 77 11 0 11 2 1 8 -18 12
-20 155 -3 176 10 12 10 16 2 16 -9 0 -12 56 -11 218 2 242 6 282 26 282 8 0
14 5 14 10 0 6 -6 10 -14 10 -24 0 -28 17 -21 85 l7 64 82 3 c75 3 81 5 77 23
-3 20 -3 20 18 1 18 -16 38 -19 139 -20z m965 27 c-16 -6 -17 -43 -2 -43 7 0
18 8 25 18 12 15 13 15 14 0 0 -9 6 -18 13 -20 9 -4 14 -119 19 -509 3 -277
10 -575 14 -661 6 -146 6 -158 -11 -158 -9 0 -19 -9 -22 -20 -5 -19 -6 -19
-24 3 l-18 22 -1 -23 c0 -12 7 -25 15 -28 25 -10 17 -20 -17 -21 -18 -1 -28 0
-21 3 20 9 -19 44 -49 44 -28 0 -28 1 -30 70 0 39 -1 91 -1 118 2 123 2 520 0
835 l-2 347 25 0 c14 0 34 7 44 15 11 8 25 15 30 14 6 0 5 -3 -1 -6z m-1322
-115 c0 -57 -1 -157 -2 -223 -6 -247 -4 -526 5 -725 5 -113 6 -240 2 -282 l-8
-78 -51 1 c-29 1 -65 4 -80 8 l-28 6 -4 305 c-3 168 -7 411 -9 540 -2 129 -7
301 -11 382 l-8 147 24 5 c35 8 78 13 127 15 l42 1 1 -102z m-261 70 l35 -3 0
-70 0 -70 -75 -6 c-75 -5 -72 -6 44 -12 35 -2 46 -30 47 -117 0 -30 3 -88 6
-128 3 -47 1 -78 -7 -87 -7 -9 -8 -15 0 -20 15 -9 12 -115 -4 -146 -7 -14 -10
-32 -6 -40 11 -19 16 -131 7 -146 -4 -6 -3 -14 3 -18 13 -8 13 -152 0 -160 -6
-4 -4 -12 5 -21 16 -16 22 -129 7 -138 -7 -4 -281 -9 -413 -7 l-57 1 -7 77
c-5 57 -4 78 5 81 9 3 9 7 -1 13 -21 12 -25 270 -5 309 8 17 10 32 5 37 -6 6
-12 97 -14 204 -3 107 -7 208 -10 225 -8 50 2 64 47 64 24 0 37 4 33 10 -4 6
-10 8 -15 5 -5 -3 -21 -3 -35 1 -24 6 -26 10 -24 56 3 60 8 63 125 78 49 7
101 16 116 22 18 7 33 6 48 -2 16 -8 25 -8 35 0 10 8 14 8 19 -2 4 -9 10 -6
22 10 10 13 20 19 23 13 3 -5 22 -11 41 -13z m1434 11 c2 -2 6 -34 9 -71 l6
-68 -57 -2 -57 -1 55 -6 55 -6 3 -280 c4 -338 6 -673 4 -812 l-2 -103 -117 0
c-65 -1 -167 -2 -228 -3 l-110 -2 -3 75 c-1 41 -7 134 -12 205 -5 72 -8 184
-5 250 7 177 4 322 -12 579 -4 69 -2 82 13 93 17 12 17 13 0 13 -16 0 -18 6
-12 46 3 26 6 60 6 77 l0 30 230 -5 c127 -3 232 -7 234 -9z m336 -14 c41 -3
113 -15 160 -26 47 -11 135 -31 195 -44 139 -32 189 -46 295 -86 47 -17 116
-42 155 -54 81 -27 82 -28 81 -160 l-1 -90 -50 -7 c-91 -13 -129 -16 -205 -17
-48 -1 -70 -4 -61 -10 8 -5 82 -10 164 -10 83 -1 154 -4 159 -7 10 -7 11 -121
0 -128 -5 -3 -31 -6 -60 -7 -70 -3 -91 -18 -27 -20 28 -1 55 -2 60 -4 6 -1 16
-3 23 -3 16 -3 17 -128 0 -138 -6 -4 -48 -10 -92 -13 -73 -4 -77 -6 -41 -12
22 -4 61 -8 88 -8 l47 -1 0 -65 0 -65 -32 -1 c-18 -1 -44 -3 -58 -5 -14 -2
-106 -8 -205 -13 -99 -6 -187 -11 -195 -13 -8 -1 66 -5 165 -8 l180 -5 -3 -35
c-5 -58 -10 -64 -69 -88 -50 -21 -78 -24 -265 -29 -114 -3 -207 -8 -205 -10 4
-3 129 -10 230 -12 104 -2 70 -15 -203 -81 -137 -32 -271 -52 -283 -41 -4 4
-10 31 -14 60 -5 43 -3 54 13 66 17 13 18 14 2 15 -15 0 -18 9 -18 53 0 28 -3
103 -7 165 l-6 112 24 1 c21 1 21 2 4 6 -30 8 -35 21 -35 100 0 58 3 74 18 82
15 9 15 10 0 11 -21 0 -26 64 -16 220 4 63 7 120 7 125 0 6 -1 41 -2 78 -1 49
2 70 12 76 8 5 105 7 216 4 112 -3 225 -2 251 3 36 7 -21 10 -216 14 l-265 5
-3 68 c-2 38 1 67 5 64 4 -3 42 -8 83 -12z m-2280 -25 c0 -5 -12 -10 -27 -9
l-28 1 25 8 c14 4 26 8 28 9 1 1 2 -3 2 -9z m-70 -15 c-7 -8 -20 -15 -29 -15
-11 0 -8 5 9 14 33 19 35 19 20 1z m110 -26 c0 -228 12 -918 17 -979 5 -69 5
-252 -1 -256 -3 -3 -162 32 -171 38 -6 4 -10 211 -10 589 l0 584 70 17 c86 20
95 21 95 7z m-210 -69 c0 -5 -18 -8 -40 -7 -22 1 -40 2 -40 4 0 1 15 6 33 11
33 9 47 7 47 -8z m-3 -135 c1 -50 6 -121 11 -160 11 -84 14 -411 5 -512 l-6
-73 -161 0 c-192 0 -237 6 -228 28 4 11 1 14 -10 9 -21 -8 -30 3 -17 20 9 9 8
13 0 13 -6 0 -11 16 -11 35 0 29 4 35 23 36 12 0 31 2 42 5 11 2 61 7 110 11
87 7 88 8 40 14 -27 4 -80 8 -117 8 -86 1 -98 6 -98 43 0 23 -4 29 -15 24 -12
-4 -15 3 -15 29 0 33 0 34 55 40 37 5 55 12 55 21 0 10 -14 14 -49 14 -28 0
-53 5 -56 10 -3 6 -1 10 6 10 10 0 10 3 1 12 -7 7 -12 29 -12 49 0 42 -5 40
152 54 88 7 134 23 63 22 -27 -1 -87 -1 -131 1 l-82 2 0 42 c-1 24 2 45 6 48
4 3 12 14 18 25 13 23 55 31 244 43 l125 8 -170 8 c-130 6 -174 12 -187 24
-21 17 -7 45 18 35 8 -3 14 0 14 6 0 14 59 44 75 37 7 -2 30 4 51 15 22 11 60
19 89 20 27 0 68 4 90 9 70 14 70 14 72 -85z m3413 25 c0 -5 6 -10 14 -10 7 0
26 -6 41 -14 53 -28 56 -39 58 -258 1 -216 -6 -423 -18 -475 -4 -19 -12 -30
-20 -27 -7 3 -29 -4 -49 -16 -21 -11 -42 -18 -47 -15 -5 4 -9 115 -8 278 1
150 -2 334 -6 410 -8 136 -7 137 14 137 11 0 21 -4 21 -10z m90 -10 c0 -5 -4
-10 -10 -10 -5 0 -10 5 -10 10 0 6 5 10 10 10 6 0 10 -4 10 -10z m-3995 -227
c4 -103 4 -232 -1 -287 -4 -56 -7 -149 -6 -209 2 -59 0 -112 -3 -117 -3 -5
-24 1 -46 13 -34 18 -41 19 -49 7 -7 -12 -10 -9 -10 11 0 15 -7 32 -16 40 -13
11 -15 40 -11 213 2 111 1 257 -2 325 -5 106 -4 127 11 149 12 19 14 30 6 39
-7 9 -7 13 1 13 6 0 11 -4 11 -10 0 -5 9 -10 20 -10 11 0 20 5 20 10 0 6 9 10
20 10 11 0 20 6 20 13 1 7 6 5 14 -6 10 -13 16 -72 21 -204z m4260 121 c50
-24 108 -54 130 -68 33 -21 36 -25 18 -26 -20 0 -49 12 -208 85 -27 13 -67 30
-87 38 -21 9 -38 18 -38 21 0 16 107 -13 185 -50z m-4450 37 c-11 -10 -75 -23
-75 -15 0 7 42 23 65 23 11 1 15 -3 10 -8z m4470 -113 c11 -6 31 -17 45 -23
172 -83 285 -144 298 -163 14 -21 13 -25 -6 -45 -12 -12 -47 -35 -79 -51 -32
-16 -74 -39 -93 -51 -19 -12 -46 -26 -60 -30 -14 -4 -38 -17 -55 -29 -40 -29
-273 -141 -279 -135 -6 6 -7 27 -5 307 0 128 -2 250 -6 272 -4 22 -4 44 -1 49
5 8 174 -63 241 -101z m-4654 5 c-73 -35 -148 -66 -165 -69 -28 -5 -29 -4 -11
7 11 7 22 15 25 19 19 26 204 107 245 107 37 1 29 -5 -94 -64z m195 46 c9 -15
16 -502 8 -561 -3 -28 -11 -48 -18 -48 -16 0 -211 89 -257 118 -20 12 -42 22
-48 22 -18 0 -220 110 -250 136 -21 18 -24 26 -15 40 11 19 200 130 249 147
17 5 38 17 48 25 20 18 246 130 264 131 6 1 15 -4 19 -10z m5169 -99 c4 -6 11
-8 16 -5 12 8 49 -4 49 -16 0 -5 -24 -9 -52 -9 -38 0 -49 3 -38 10 13 8 12 10
-2 10 -10 0 -18 5 -18 10 0 13 37 13 45 0z m-442 -37 c61 -37 124 -83 113 -83
-3 0 -29 13 -58 29 -147 79 -164 91 -134 91 10 0 46 -17 79 -37z m-5593 -2 c0
-5 -13 -12 -29 -16 -17 -3 -31 -14 -34 -26 -4 -16 -14 -19 -57 -19 -34 0 -49
4 -45 11 4 6 14 8 22 5 8 -3 11 -1 8 4 -7 12 42 33 56 24 6 -3 15 -1 22 4 7 5
21 12 32 15 11 2 21 5 23 6 1 0 2 -3 2 -8z m418 -38 c-7 -9 -31 -25 -53 -35
-22 -11 -56 -29 -75 -40 l-35 -21 35 31 c19 17 43 34 53 37 9 4 17 11 17 16 0
5 7 9 15 9 8 0 15 4 15 8 0 4 9 8 21 9 18 2 19 0 7 -14z m5996 -8 c-4 -10 0
-15 11 -15 13 0 15 -3 7 -12 -5 -7 -9 -25 -7 -40 2 -16 -1 -28 -6 -28 -4 0 -6
-6 -3 -14 4 -11 -2 -14 -28 -12 -57 5 -59 6 -53 16 3 6 -1 10 -9 10 -8 0 -19
-7 -24 -15 -6 -12 -28 -16 -88 -17 -44 -1 -85 2 -92 6 -7 4 -12 2 -12 -4 0 -8
-7 -9 -17 -5 -10 4 -87 7 -170 7 -172 -1 -173 -1 -173 76 l0 39 72 2 c39 1 75
4 79 7 4 2 11 0 14 -6 5 -8 12 -7 23 2 12 10 16 10 19 1 3 -7 9 -13 14 -13 6
0 7 5 4 10 -4 7 50 10 154 10 122 0 161 -3 162 -12 0 -10 2 -10 6 0 2 6 12 12
21 12 15 0 15 -2 2 -10 -11 -7 -8 -10 15 -9 17 0 24 3 17 6 -21 8 -5 19 32 21
28 2 34 -1 30 -13z m-6207 -106 c-3 -30 -12 -54 -26 -68 -22 -22 -29 -22 -267
-22 -166 0 -250 3 -259 11 -9 7 -15 8 -20 0 -3 -5 -27 -10 -52 -10 -26 0 -43
3 -40 7 4 3 2 12 -4 20 -7 8 -8 13 -1 13 16 0 21 38 6 44 -8 3 -11 12 -7 23 4
11 8 13 11 5 3 -9 8 -10 17 -2 8 7 112 11 298 13 157 1 283 6 280 10 -2 4 12
7 32 5 l36 -2 -4 -47z m5438 -49 c-3 -5 -11 -10 -17 -10 -6 0 -26 -13 -45 -30
-35 -32 -56 -39 -47 -17 2 7 28 25 57 40 59 30 61 31 52 17z m-5268 -64 c11
-4 28 -15 38 -26 10 -11 24 -20 32 -20 7 0 13 -4 13 -10 0 -5 -2 -10 -5 -10
-13 0 -72 29 -85 41 -8 8 -36 28 -62 44 -63 39 -62 53 0 16 27 -16 58 -32 69
-35z m5551 39 c21 -7 13 -22 -21 -38 -18 -9 -49 -27 -70 -41 -21 -14 -42 -26
-46 -26 -5 0 -26 -12 -47 -27 -32 -22 -106 -63 -219 -120 -22 -11 -190 -92
-306 -147 -42 -20 -79 -36 -82 -36 -4 0 -35 -13 -69 -29 -178 -80 -227 -101
-240 -101 -7 0 -23 -6 -34 -14 -11 -8 -56 -24 -100 -35 -43 -11 -106 -29 -138
-41 -33 -11 -62 -18 -64 -15 -3 3 -10 1 -16 -4 -18 -14 -331 -88 -471 -111
-38 -6 -104 -18 -145 -26 -41 -8 -127 -16 -190 -19 -148 -6 -265 -14 -362 -25
-93 -11 -569 -10 -683 1 -44 4 -159 10 -255 13 -173 5 -255 13 -393 40 -40 8
-94 17 -122 21 -91 11 -99 13 -205 40 -110 28 -126 32 -162 40 -32 6 -196 52
-295 81 -45 13 -119 41 -165 62 -45 21 -114 51 -153 66 -38 15 -88 36 -110 46
-39 19 -88 41 -250 113 -44 19 -96 42 -115 51 -44 20 -100 52 -114 66 -5 5
-16 10 -23 10 -7 0 -52 24 -100 53 -48 29 -101 59 -118 66 l-30 14 25 8 c14 4
67 7 118 8 100 1 114 -4 257 -93 103 -64 259 -146 279 -146 6 0 38 -13 71 -29
33 -16 82 -36 108 -45 27 -9 96 -36 155 -60 128 -53 487 -167 592 -189 41 -9
127 -26 190 -37 63 -12 144 -28 180 -35 71 -15 206 -31 340 -40 47 -3 146 -11
220 -16 364 -26 582 -23 930 12 52 5 150 14 218 19 67 5 202 26 300 46 97 20
202 40 232 46 157 28 489 137 772 255 98 40 180 73 184 73 3 0 18 9 34 20 15
11 37 21 48 23 29 4 146 64 226 115 126 81 235 141 263 144 33 4 152 -1 171
-7z m162 -6 c11 -6 8 -8 -12 -9 -14 0 -28 -5 -30 -10 -2 -6 -16 -13 -32 -16
-23 -4 -27 -2 -22 11 3 9 6 20 6 24 0 10 72 11 90 0z m-6144 -68 c-3 -5 3 -11
14 -14 11 -3 20 -10 20 -17 0 -6 -5 -8 -12 -3 -14 8 -19 9 -61 11 -18 1 -26 6
-21 13 4 8 0 9 -15 4 -12 -4 -21 -2 -21 4 0 6 21 11 51 11 27 0 48 -4 45 -9z
m5534 -11 c0 -5 -4 -10 -10 -10 -5 0 -26 -11 -46 -25 -60 -41 -175 -91 -221
-97 -24 -4 -43 -4 -43 -2 0 8 285 143 303 144 9 0 17 -4 17 -10z m-4845 -91
c44 -20 115 -53 157 -73 59 -26 76 -39 72 -50 -7 -19 -7 -19 -38 -5 -13 6 -22
17 -20 24 4 9 -5 13 -28 12 -34 0 -257 102 -279 129 -19 23 46 6 136 -37z
m4515 -77 c0 -5 -11 -14 -25 -20 -20 -9 -25 -9 -25 3 0 7 10 16 23 18 12 2 23
5 25 6 1 0 2 -3 2 -7z m-270 -33 c0 -13 -17 -26 -55 -44 -31 -14 -58 -25 -60
-25 -6 0 -7 85 -1 91 2 2 29 2 60 1 47 -3 56 -7 56 -23z m-3335 -21 c4 -19 2
-123 -4 -175 -1 -14 -67 3 -92 24 -8 7 -32 13 -52 13 -44 0 -127 37 -127 56 0
8 -7 14 -15 14 -7 0 -18 7 -23 16 -5 9 -12 15 -16 15 -4 -1 -13 5 -21 13 -13
13 -10 16 28 21 78 12 191 22 254 24 57 1 63 -1 68 -21z m1419 -169 c5 -14 6
-46 2 -71 l-7 -45 -112 -6 c-62 -4 -160 -7 -219 -7 l-108 0 0 64 c0 102 -18
95 223 93 l212 -2 9 -26z m-681 11 c3 -3 3 -35 0 -72 l-6 -66 -53 0 c-30 0
-54 5 -54 9 0 5 -7 9 -15 9 -8 0 -15 -5 -15 -11 0 -8 -4 -8 -15 1 -9 7 -23 9
-37 4 -13 -4 -27 -7 -33 -5 -5 2 -59 10 -120 18 -60 8 -111 16 -113 18 -3 2
-7 24 -9 49 -5 37 -3 45 13 48 29 5 452 4 457 -2z m504 -166 c-3 -3 -12 -4
-19 -1 -8 3 -5 6 6 6 11 1 17 -2 13 -5z m172 1 c-8 -8 -148 -10 -155 -2 -4 4
30 7 76 7 46 0 81 -2 79 -5z m304 -2 c-7 -2 -19 -2 -25 0 -7 3 -2 5 12 5 14 0
19 -2 13 -5z m487 -13 c0 -5 -7 -7 -15 -4 -8 4 -15 8 -15 10 0 2 7 4 15 4 8 0
15 -4 15 -10z m-1370 -20 c0 -5 -4 -10 -9 -10 -6 0 -13 5 -16 10 -3 6 1 10 9
10 9 0 16 -4 16 -10z m60 1 c0 -5 -11 -8 -25 -7 -33 1 -33 16 0 16 14 0 25 -4
25 -9z m30 -1 c0 -5 -2 -10 -4 -10 -3 0 -8 5 -11 10 -3 6 -1 10 4 10 6 0 11
-4 11 -10z m666 -26 c-3 -9 -6 -18 -6 -20 0 -2 -4 -4 -9 -4 -5 0 -7 9 -4 20 3
11 10 20 15 20 6 0 7 -7 4 -16z m-1441 -93 c73 -16 80 -20 80 -42 0 -24 -2
-24 -85 -24 l-85 0 -3 43 c-2 23 0 42 5 41 4 0 44 -8 88 -18z m2185 -90 c0
-28 -1 -28 -77 -35 -80 -6 -97 -1 -91 30 3 19 42 28 136 32 29 2 32 -1 32 -27z
m-1392 -28 c-3 -28 -3 -28 -83 -28 -80 0 -80 0 -83 28 l-3 27 86 0 86 0 -3
-27z m687 -33 l0 -35 -75 0 -75 0 -3 32 c-3 31 -2 32 45 36 101 8 108 6 108
-33z"></path>
<path d="M3080 1598 c0 -9 145 -9 245 2 53 5 32 6 -87 6 -87 0 -158 -4 -158
-8z"></path>
<path d="M3408 1603 c6 -2 18 -2 25 0 6 3 1 5 -13 5 -14 0 -19 -2 -12 -5z"></path>
<path d="M2638 1413 c7 -3 16 -2 19 1 4 3 -2 6 -13 5 -11 0 -14 -3 -6 -6z"></path>
<path d="M4800 1449 c-77 -4 -83 -6 -35 -7 33 -2 151 -7 263 -12 198 -9 272
-6 272 11 0 10 -367 16 -500 8z"></path>
<path d="M4563 1093 c9 -2 23 -2 30 0 6 3 -1 5 -18 5 -16 0 -22 -2 -12 -5z"></path>
<path d="M4537 743 c-2 -4 -5 -51 -6 -103 -2 -78 0 -93 11 -82 8 8 13 39 13
88 0 55 3 74 13 74 10 0 13 -18 10 -75 -2 -50 1 -76 9 -79 19 -8 23 5 23 81 0
60 3 73 16 73 13 0 15 -12 14 -72 -3 -95 -2 -100 12 -96 7 3 10 32 9 88 -2 60
1 85 11 91 8 5 -9 9 -44 9 -31 0 -63 3 -71 6 -8 3 -17 2 -20 -3z"></path>
</g>
</svg>